<svg id="Clock" xmlns="http://www.w3.org/2000/svg" width="17.731" height="17.731" viewBox="0 0 17.731 17.731">
  <path id="Path_13" data-name="Path 13" d="M2.66,2.66A8.048,8.048,0,0,1,8.865,0a8.048,8.048,0,0,1,6.206,2.66,8.048,8.048,0,0,1,2.66,6.206,8.048,8.048,0,0,1-2.66,6.206,8.048,8.048,0,0,1-6.206,2.66,8.048,8.048,0,0,1-6.206-2.66A8.848,8.848,0,0,1,0,8.865,8.048,8.048,0,0,1,2.66,2.66Zm10.2,10.2,1.034-1.034L10.2,8.127l-1.33-5.91H7.388V8.865A1.341,1.341,0,0,0,7.831,9.9a.516.516,0,0,0,.3.148Z" transform="translate(0 0)" fill="#6abea7"/>
</svg>
