<svg xmlns="http://www.w3.org/2000/svg" width="28.936" height="22.456" viewBox="0 0 28.936 22.456">
  <defs>
    <style>
      .cls-1, .cls-2 {
        fill: none;
      }

      .cls-1 {
        stroke: #6abea7;
        stroke-linecap: round;
        stroke-width: 2.5px;
      }

      .cls-3, .cls-4 {
        stroke: none;
      }

      .cls-4 {
        fill: #6abea7;
      }
    </style>
  </defs>
  <g id="Group_120" data-name="Group 120" transform="translate(-33.25 -143.435)">
    <path id="Path_254" data-name="Path 254" class="cls-1" d="M0,0H3.966" transform="translate(34.5 146.923)"/>
    <path id="Path_256" data-name="Path 256" class="cls-1" d="M3.966,0H0" transform="translate(56.97 154.848)"/>
    <path id="Path_258" data-name="Path 258" class="cls-1" d="M0,0H3.966" transform="translate(34.5 162.772)"/>
    <line id="Line_5" data-name="Line 5" class="cls-1" x2="16.524" transform="translate(44.412 146.923)"/>
    <line id="Line_6" data-name="Line 6" class="cls-1" x1="16.524" transform="translate(34.5 154.848)"/>
    <line id="Line_7" data-name="Line 7" class="cls-1" x2="16.524" transform="translate(44.412 162.772)"/>
    <g id="Path_250" data-name="Path 250" class="cls-2" transform="translate(37.805 143.435)">
      <path class="cls-3" d="M3.3,0A3.3,3.3,0,1,1,0,3.3,3.3,3.3,0,0,1,3.3,0Z"/>
      <path class="cls-4" d="M 3.303632974624634 2.500002861022949 C 2.860512971878052 2.500002861022949 2.500002861022949 2.860512971878052 2.500002861022949 3.303632974624634 C 2.500002861022949 3.746752977371216 2.860512971878052 4.107263088226318 3.303632974624634 4.107263088226318 C 3.746752977371216 4.107263088226318 4.107263088226318 3.746752977371216 4.107263088226318 3.303632974624634 C 4.107263088226318 2.860512971878052 3.746752977371216 2.500002861022949 3.303632974624634 2.500002861022949 M 3.303632974624634 2.86102294921875e-06 C 5.128182888031006 2.86102294921875e-06 6.607263088226318 1.479083061218262 6.607263088226318 3.303632974624634 C 6.607263088226318 5.128182888031006 5.128182888031006 6.607263088226318 3.303632974624634 6.607263088226318 C 1.479083061218262 6.607263088226318 2.86102294921875e-06 5.128182888031006 2.86102294921875e-06 3.303632974624634 C 2.86102294921875e-06 1.479083061218262 1.479083061218262 2.86102294921875e-06 3.303632974624634 2.86102294921875e-06 Z"/>
    </g>
    <g id="Path_255" data-name="Path 255" class="cls-2" transform="translate(50.508 151.504)">
      <path class="cls-3" d="M3.231,0A3.231,3.231,0,1,0,6.463,3.231,3.231,3.231,0,0,0,3.231,0Z"/>
      <path class="cls-4" d="M 3.231324195861816 2.500003099441528 C 2.828074216842651 2.500003099441528 2.500004291534424 2.828073024749756 2.500004291534424 3.231323003768921 C 2.500004291534424 3.634572982788086 2.828074216842651 3.962642908096313 3.231324195861816 3.962642908096313 C 3.634574174880981 3.962642908096313 3.962644100189209 3.634572982788086 3.962644100189209 3.231323003768921 C 3.962644100189209 2.828073024749756 3.634574174880981 2.500003099441528 3.231324195861816 2.500003099441528 M 3.231324195861816 2.86102294921875e-06 C 5.015933990478516 2.86102294921875e-06 6.462644100189209 1.446712970733643 6.462644100189209 3.231323003768921 C 6.462644100189209 5.015933036804199 5.015933990478516 6.462643146514893 3.231324195861816 6.462643146514893 C 1.446714401245117 6.462643146514893 4.291534423828125e-06 5.015933036804199 4.291534423828125e-06 3.231323003768921 C 4.291534423828125e-06 1.446712970733643 1.446714401245117 2.86102294921875e-06 3.231324195861816 2.86102294921875e-06 Z"/>
    </g>
    <g id="Path_257" data-name="Path 257" class="cls-2" transform="translate(37.805 159.284)">
      <path class="cls-3" d="M3.3,0A3.3,3.3,0,1,1,0,3.3,3.3,3.3,0,0,1,3.3,0Z"/>
      <path class="cls-4" d="M 3.303632974624634 2.500002861022949 C 2.860512971878052 2.500002861022949 2.500002861022949 2.860512971878052 2.500002861022949 3.303632974624634 C 2.500002861022949 3.746752977371216 2.860512971878052 4.107263088226318 3.303632974624634 4.107263088226318 C 3.746752977371216 4.107263088226318 4.107263088226318 3.746752977371216 4.107263088226318 3.303632974624634 C 4.107263088226318 2.860512971878052 3.746752977371216 2.500002861022949 3.303632974624634 2.500002861022949 M 3.303632974624634 2.86102294921875e-06 C 5.128182888031006 2.86102294921875e-06 6.607263088226318 1.479083061218262 6.607263088226318 3.303632974624634 C 6.607263088226318 5.128182888031006 5.128182888031006 6.607263088226318 3.303632974624634 6.607263088226318 C 1.479083061218262 6.607263088226318 2.86102294921875e-06 5.128182888031006 2.86102294921875e-06 3.303632974624634 C 2.86102294921875e-06 1.479083061218262 1.479083061218262 2.86102294921875e-06 3.303632974624634 2.86102294921875e-06 Z"/>
    </g>
  </g>
</svg>
