<svg xmlns="http://www.w3.org/2000/svg" width="29.283" height="23.416" viewBox="0 0 29.283 23.416">
  <defs>
    <style>
      .cls-1 {
        fill: #6abea7;
        stroke: rgba(106,190,167,0.9);
      }
    </style>
  </defs>
  <g id="Group_116" data-name="Group 116" transform="translate(-987.103 -386.04)">
    <path id="Path_278" data-name="Path 278" class="cls-1" d="M35.256,2.2H9.828c-.816,0-1.428.422-1.428.961V23.655c0,.563.612.961,1.428.961H35.256c.782,0,1.428-.469,1.428-1.008V3.161C36.683,2.6,36.071,2.2,35.256,2.2Zm-.442,1.29V13.877c-.374.164-.68.3-1.02.469a19.243,19.243,0,0,0-2.244,1.266c-2.006,1.219-3.909,2.392-6.425,1.735a5.422,5.422,0,0,1-1.462-.7l-.238-.141a14.511,14.511,0,0,0-4.419-1.852c-2.924-.633-5.541.539-7.853,1.548-.272.117-.578.258-.85.375V3.49ZM10.27,23.326V18.051c.612-.234,1.224-.516,1.836-.774,2.074-.914,4.181-1.852,6.323-1.407A13.722,13.722,0,0,1,22.2,17.488l.17.094a7.67,7.67,0,0,0,2.074.961,8.542,8.542,0,0,0,2.108.281,11.685,11.685,0,0,0,6.221-2.251,22.366,22.366,0,0,1,2.04-1.149V23.35H10.27Z" transform="translate(979.203 384.34)"/>
    <path id="Path_279" data-name="Path 279" class="cls-1" d="M54.958,26.087a3.823,3.823,0,0,0,3.829-3.829,3.844,3.844,0,1,0-3.829,3.829Zm0-6.109a2.227,2.227,0,0,1,2.221,2.251,2.2,2.2,0,0,1-2.221,2.221,2.245,2.245,0,0,1-2.251-2.221A2.271,2.271,0,0,1,54.958,19.978Z" transform="translate(953.575 369.969)"/>
  </g>
</svg>
