<svg xmlns="http://www.w3.org/2000/svg" width="20.756" height="23" viewBox="0 0 20.756 23">
  <defs>
    <style>
      .cls-1 {
        fill: #6abea7;
        stroke: #6abea7;
      }
    </style>
  </defs>
  <path id="paint-bucket" class="cls-1" d="M27.086,15.814,17.8,6.525V5.477a2.677,2.677,0,0,0-5.355,0l.023,5.285L7.926,15.3a1.124,1.124,0,0,0,0,1.583l7.589,7.589h0a1.109,1.109,0,0,0,.792.326,1.2,1.2,0,0,0,.768-.279l6.961-6.961,2.514-.233a.861.861,0,0,0,.722-.559A.885.885,0,0,0,27.086,15.814ZM13.723,5.477a1.416,1.416,0,0,1,1.4-1.4,1.432,1.432,0,0,1,1.4,1.4V6.711L13.723,9.5ZM23.454,16.3,16.307,23.45,8.95,16.093l8.288-8.288L20.032,10.6,17.8,12.834a.634.634,0,1,0,.885.908l2.235-2.235L22.406,13l-1.42,1.42a.634.634,0,1,0,.885.908l1.42-1.42,2.235,2.235Z" transform="translate(-7.1 -2.3)"/>
</svg>
