<svg xmlns="http://www.w3.org/2000/svg" width="12.545" height="22.539" viewBox="0 0 12.545 22.539">
  <defs>
    <style>
      .cls-1 {
        fill: #6abea7;
        stroke: #6abea7;
        stroke-width: 0.5px;
      }
    </style>
  </defs>
  <path id="paper-clip" class="cls-1" d="M35.629,8a.646.646,0,0,0-.657.637v9.148a4.468,4.468,0,0,1-1.361,3.254,4.625,4.625,0,0,1-3.356,1.32A4.707,4.707,0,0,1,26.922,21a4.56,4.56,0,0,1-1.408-3.231V6.274a3.373,3.373,0,0,1,1.5-2.822A3.622,3.622,0,0,1,30.255,3h.023a1.09,1.09,0,0,1,.4.159l.047.023a3.453,3.453,0,0,1,1.948,3.095V17.129A2.8,2.8,0,0,1,32.015,19l-.023.023a.535.535,0,0,1-.164.159,2.032,2.032,0,0,1-1.432.614,2.069,2.069,0,0,1-1.6-.774,2.926,2.926,0,0,1-.681-1.889V8.618a.646.646,0,0,0-.657-.637.632.632,0,0,0-.657.637v8.534a4.178,4.178,0,0,0,.962,2.663A3.41,3.41,0,0,0,30.4,21.066a3.344,3.344,0,0,0,2.347-.979,2.028,2.028,0,0,0,.258-.3,4.051,4.051,0,0,0,.939-2.64V6.3a4.715,4.715,0,0,0-2.6-4.187,2.952,2.952,0,0,0-.7-.3,4.925,4.925,0,0,0-4.389.614A4.592,4.592,0,0,0,24.2,6.252V17.721a5.8,5.8,0,0,0,1.784,4.119,6.05,6.05,0,0,0,4.224,1.73h.117A6.016,6.016,0,0,0,34.5,21.863a5.528,5.528,0,0,0,1.737-4.142v-9.1A.575.575,0,0,0,35.629,8Z" transform="translate(-23.95 -1.281)"/>
</svg>
