<svg xmlns="http://www.w3.org/2000/svg" width="22.662" height="22.916" viewBox="0 0 22.662 22.916">
  <defs>
    <style>
      .cls-1 {
        fill: #6abea7;
        stroke: rgba(106,190,167,0.9);
      }
    </style>
  </defs>
  <path id="pencil-alt" class="cls-1" d="M23.962,5.312a.91.91,0,0,0-.273-.659l-2.5-2.5a.922.922,0,0,0-.614-.364.848.848,0,0,0-.7.273l-2.7,2.682H3.232a.908.908,0,0,0-.932.932V22.768a.908.908,0,0,0,.932.932H20.3a.908.908,0,0,0,.932-.932V8.448l2.478-2.478A.99.99,0,0,0,23.962,5.312ZM13.733,14.176l-.364-.364a.627.627,0,0,0-.886.886l.091.091-2.318.773.773-2.341.091.091a.619.619,0,0,0,.864-.886l-.364-.364,6.523-6.523L20.257,7.63Zm6.251,8.274H3.573V5.993H15.938L10.3,11.63h0l-.114.091-1.477,4.5a.674.674,0,0,0,.045.591.688.688,0,0,0,.591.318h.091l4.591-1.546,5.91-5.91V22.45ZM21.143,6.744,19.029,4.652,20.484,3.2,22.6,5.312Z" transform="translate(-1.8 -1.284)"/>
</svg>
