<svg xmlns="http://www.w3.org/2000/svg" width="27.508" height="27.515" viewBox="0 0 27.508 27.515">
  <defs>
    <style>
      .cls-1 {
        fill: #6abea7;
        stroke: #6abea7;
      }
    </style>
  </defs>
  <path id="pencil" class="cls-1" d="M30.208,9.034c-.519-.519-1.01-1.01-1.5-1.529-.981-.952-1.991-1.962-3-2.943a1.309,1.309,0,0,0-.952-.462,1.328,1.328,0,0,0-.952.375L6.751,21.527l-2.6,7.905a.919.919,0,0,0,.058.779,1.01,1.01,0,0,0,.808.4h.115l8.05-2.683L30.208,10.909A1.323,1.323,0,0,0,30.208,9.034ZM7.79,23.431l.519.519a.786.786,0,0,0,1.1-1.125l-.866-.866,12-12L24.7,14.112l-11.945,12-.894-.894a.8.8,0,1,0-1.125,1.125l.548.548L6.116,28.624ZM25.88,12.986,21.7,8.8l3.029-3c.952.952,1.933,1.9,2.856,2.856.433.433.866.866,1.3,1.327Z" transform="translate(-3.59 -3.6)"/>
</svg>
